<mxfile host="Electron" agent="Mozilla/5.0 (Windows NT 10.0; Win64; x64) AppleWebKit/537.36 (KHTML, like Gecko) draw.io/28.2.5 Chrome/138.0.7204.251 Electron/37.6.1 Safari/537.36" version="28.2.5">
  <diagram name="Minesweeper Sequence Diagram" id="0">
    <mxGraphModel dx="772" dy="509" grid="1" gridSize="10" guides="1" tooltips="1" connect="1" arrows="1" fold="1" page="1" pageScale="1" pageWidth="850" pageHeight="1100" math="0" shadow="0">
      <root>
        <mxCell id="0" />
        <mxCell id="1" parent="0" />
        <mxCell id="player" value=":Player" style="shape=umlLifeline;perimeter=lifelinePerimeter;whiteSpace=wrap;html=1;container=1;collapsible=0;recursiveResize=0;outlineConnect=0;" parent="1" vertex="1">
          <mxGeometry x="100" y="40" width="100" height="700" as="geometry" />
        </mxCell>
        <mxCell id="playerAct1" value="" style="html=1;points=[];perimeter=orthogonalPerimeter;" parent="player" vertex="1">
          <mxGeometry x="45" y="70" width="10" height="30" as="geometry" />
        </mxCell>
        <mxCell id="game" value=":Game" style="shape=umlLifeline;perimeter=lifelinePerimeter;whiteSpace=wrap;html=1;container=1;collapsible=0;recursiveResize=0;outlineConnect=0;" parent="1" vertex="1">
          <mxGeometry x="300" y="40" width="100" height="700" as="geometry" />
        </mxCell>
        <mxCell id="gameAct1" value="" style="html=1;points=[];perimeter=orthogonalPerimeter;" parent="game" vertex="1">
          <mxGeometry x="45" y="70" width="10" height="570" as="geometry" />
        </mxCell>
        <mxCell id="cell" value=":Cell" style="shape=umlLifeline;perimeter=lifelinePerimeter;whiteSpace=wrap;html=1;container=1;collapsible=0;recursiveResize=0;outlineConnect=0;" parent="1" vertex="1">
          <mxGeometry x="500" y="40" width="100" height="700" as="geometry" />
        </mxCell>
        <mxCell id="cellAct1" value="" style="html=1;points=[];perimeter=orthogonalPerimeter;" parent="cell" vertex="1">
          <mxGeometry x="45" y="120" width="10" height="30" as="geometry" />
        </mxCell>
        <mxCell id="msg1" value="revealCell()" style="html=1;verticalAlign=bottom;endArrow=block;endFill=1;" parent="1" edge="1">
          <mxGeometry width="80" relative="1" as="geometry">
            <mxPoint x="155" y="110" as="sourcePoint" />
            <mxPoint x="345" y="110" as="targetPoint" />
          </mxGeometry>
        </mxCell>
        <mxCell id="msg2" value="getContent()" style="html=1;verticalAlign=bottom;endArrow=block;endFill=1;" parent="1" edge="1">
          <mxGeometry width="80" relative="1" as="geometry">
            <mxPoint x="355" y="160" as="sourcePoint" />
            <mxPoint x="545" y="160" as="targetPoint" />
          </mxGeometry>
        </mxCell>
        <mxCell id="msg3" value="content" style="html=1;verticalAlign=bottom;endArrow=open;dashed=1;endSize=8;" parent="1" edge="1">
          <mxGeometry relative="1" as="geometry">
            <mxPoint x="545" y="180" as="sourcePoint" />
            <mxPoint x="355" y="180" as="targetPoint" />
          </mxGeometry>
        </mxCell>
        <mxCell id="altFrame" value="alt" style="shape=umlFrame;whiteSpace=wrap;html=1;width=40;height=25;" parent="1" vertex="1">
          <mxGeometry x="260" y="210" width="300" height="400" as="geometry" />
        </mxCell>
        <mxCell id="cond1" value="[mine]" style="text;html=1;align=left;verticalAlign=top;fontStyle=2;" parent="1" vertex="1">
          <mxGeometry x="270" y="250" width="80" height="20" as="geometry" />
        </mxCell>
        <mxCell id="msg4" value="endGame()" style="html=1;verticalAlign=bottom;endArrow=block;endFill=1;" parent="1" edge="1">
          <mxGeometry width="80" relative="1" as="geometry">
            <mxPoint x="355" y="260" as="sourcePoint" />
            <mxPoint x="355" y="280" as="targetPoint" />
            <Array as="points">
              <mxPoint x="410" y="260" />
              <mxPoint x="410" y="280" />
            </Array>
          </mxGeometry>
        </mxCell>
        <mxCell id="sep1" value="" style="line;strokeWidth=1;dashed=1;" parent="1" vertex="1">
          <mxGeometry x="260" y="320" width="300" height="8" as="geometry" />
        </mxCell>
        <mxCell id="cond2" value="[number]" style="text;html=1;align=left;verticalAlign=top;fontStyle=2;" parent="1" vertex="1">
          <mxGeometry x="270" y="330" width="80" height="20" as="geometry" />
        </mxCell>
        <mxCell id="msg5" value="revealNumber()" style="html=1;verticalAlign=bottom;endArrow=block;endFill=1;" parent="1" edge="1">
          <mxGeometry width="80" relative="1" as="geometry">
            <mxPoint x="355" y="370" as="sourcePoint" />
            <mxPoint x="355" y="390" as="targetPoint" />
            <Array as="points">
              <mxPoint x="410" y="370" />
              <mxPoint x="410" y="390" />
            </Array>
          </mxGeometry>
        </mxCell>
        <mxCell id="msg6" value="checkWin()" style="html=1;verticalAlign=bottom;endArrow=block;endFill=1;" parent="1" edge="1">
          <mxGeometry width="80" relative="1" as="geometry">
            <mxPoint x="355" y="410" as="sourcePoint" />
            <mxPoint x="355" y="430" as="targetPoint" />
            <Array as="points">
              <mxPoint x="410" y="410" />
              <mxPoint x="410" y="430" />
            </Array>
          </mxGeometry>
        </mxCell>
        <mxCell id="sep2" value="" style="line;strokeWidth=1;dashed=1;" parent="1" vertex="1">
          <mxGeometry x="260" y="460" width="300" height="8" as="geometry" />
        </mxCell>
        <mxCell id="cond3" value="[empty]" style="text;html=1;align=left;verticalAlign=top;fontStyle=2;" parent="1" vertex="1">
          <mxGeometry x="270" y="470" width="80" height="20" as="geometry" />
        </mxCell>
        <mxCell id="loopFrame" value="loop" style="shape=umlFrame;whiteSpace=wrap;html=1;width=45;height=25;" parent="1" vertex="1">
          <mxGeometry x="280" y="500" width="260" height="90" as="geometry" />
        </mxCell>
        <mxCell id="loopCond" value="[each neighbor]" style="text;html=1;align=left;verticalAlign=top;fontStyle=2;" parent="1" vertex="1">
          <mxGeometry x="280" y="520" width="120" height="20" as="geometry" />
        </mxCell>
        <mxCell id="msg7" value="revealCell(neighbor)" style="html=1;verticalAlign=bottom;endArrow=block;endFill=1;" parent="1" edge="1">
          <mxGeometry width="80" relative="1" as="geometry">
            <mxPoint x="355" y="550" as="sourcePoint" />
            <mxPoint x="355" y="570" as="targetPoint" />
            <Array as="points">
              <mxPoint x="420" y="550" />
              <mxPoint x="420" y="570" />
            </Array>
          </mxGeometry>
        </mxCell>
      </root>
    </mxGraphModel>
  </diagram>
</mxfile>
